<?xml version="1.0" encoding="UTF-8"?>
<svg width="400" height="400" viewBox="0 0 400 400" fill="none" xmlns="http://www.w3.org/2000/svg">
    <!-- 背景 -->
    <rect width="400" height="400" fill="#F3F4F6"/>
    
    <!-- 图标 -->
    <path d="M200 140C178.954 140 162 156.954 162 178C162 199.046 178.954 216 200 216C221.046 216 238 199.046 238 178C238 156.954 221.046 140 200 140ZM200 204C185.663 204 174 192.337 174 178C174 163.663 185.663 152 200 152C214.337 152 226 163.663 226 178C226 192.337 214.337 204 200 204Z" fill="#9CA3AF"/>
    <path d="M270 116H130C122.268 116 116 122.268 116 130V270C116 277.732 122.268 284 130 284H270C277.732 284 284 277.732 284 270V130C284 122.268 277.732 116 270 116ZM272 270C272 271.105 271.105 272 270 272H130C128.895 272 128 271.105 128 270V130C128 128.895 128.895 128 130 128H270C271.105 128 272 128.895 272 130V270Z" fill="#9CA3AF"/>
    
    <!-- 文字 -->
    <text x="200" y="260" text-anchor="middle" font-family="system-ui, -apple-system" font-size="14" fill="#6B7280">Image Not Available</text>
</svg>
